<svg width="2708" height="2802" viewBox="0 0 2708 2802" fill="none" xmlns="http://www.w3.org/2000/svg">
<path d="M1929.51 1237.52C1912.19 1234.16 1895.01 1229.73 1878.11 1224.33C1861.24 1218.84 1844.54 1212.59 1828.07 1205.68C1811.57 1198.76 1795.18 1191.35 1778.76 1183.67L1729.09 1160.26C1712.33 1152.41 1695.26 1144.7 1677.69 1137.38C1673.26 1135.57 1668.89 1133.73 1664.4 1132.01L1657.69 1129.38L1650.92 1126.81C1646.41 1125.09 1641.78 1123.51 1637.21 1121.88C1634.9 1121.06 1632.56 1120.3 1630.24 1119.52C1627.93 1118.76 1625.62 1117.94 1623.25 1117.21C1618.54 1115.75 1613.85 1114.26 1609.06 1112.92C1606.66 1112.22 1604.29 1111.52 1601.87 1110.88L1594.62 1109.01C1589.79 1107.75 1584.97 1106.47 1580.06 1105.45L1572.73 1103.81C1570.27 1103.29 1567.82 1102.7 1565.36 1102.27L1550.53 1099.52L1535.61 1097.25C1534.34 1097.07 1533.09 1096.84 1531.85 1096.69L1528.1 1096.25L1520.6 1095.32C1518.09 1095.06 1515.61 1094.68 1513.09 1094.47L1505.56 1093.8C1485.48 1091.99 1465.31 1091.15 1445.25 1091.35C1425.17 1091.55 1405.2 1092.58 1385.42 1094.41C1345.82 1098.09 1307.09 1104.98 1269.43 1113.91C1231.83 1122.96 1195.24 1134.11 1159.84 1146.89C1142.16 1153.29 1124.67 1160 1107.54 1167.21C1090.39 1174.36 1073.52 1181.83 1056.94 1189.68C1092.45 1177.45 1128.22 1165.87 1164.67 1155.94C1201.03 1145.9 1237.98 1137.41 1275.3 1130.78C1293.97 1127.48 1312.76 1124.83 1331.57 1122.64C1341 1121.5 1350.42 1120.68 1359.84 1119.84L1374 1118.82C1378.71 1118.52 1383.45 1118.35 1388.16 1118.11C1407.03 1117.3 1425.9 1117.12 1444.63 1117.76L1458.65 1118.44C1463.34 1118.73 1467.99 1119.14 1472.62 1119.46L1476.11 1119.72L1486.52 1120.77C1488.84 1121 1491.15 1121.21 1493.46 1121.47L1507.23 1123.28C1509.51 1123.54 1511.77 1123.98 1514.05 1124.33L1520.88 1125.41L1524.29 1125.97C1525.42 1126.14 1526.55 1126.37 1527.65 1126.58L1541.13 1129.18L1554.45 1132.18C1556.7 1132.65 1558.88 1133.29 1561.05 1133.85L1567.62 1135.54C1572.02 1136.59 1576.31 1137.93 1580.63 1139.19L1587.09 1141.09C1589.23 1141.76 1591.34 1142.46 1593.46 1143.16C1597.72 1144.5 1601.92 1146.02 1606.13 1147.48C1639.78 1159.47 1671.96 1174.8 1704.23 1190.91C1736.53 1207.02 1769 1224.01 1803.87 1239.33C1810.52 1242.25 1817.29 1245.11 1824.15 1247.88C1803.5 1249.52 1782.79 1250.74 1762.03 1251.65L1742.32 1252.38L1722.57 1252.87C1716 1253.08 1709.4 1253.08 1702.8 1253.17L1692.89 1253.28C1689.59 1253.31 1686.29 1253.28 1683.02 1253.28C1656.62 1253.4 1630.16 1252.84 1603.7 1252.03C1577.24 1251.24 1550.75 1249.95 1524.24 1248.44C1497.72 1246.92 1471.18 1245.17 1444.63 1243.15C1391.55 1239.24 1338.37 1234.51 1285.06 1229.87C1231.72 1225.23 1178.23 1220.62 1124.55 1216.89L1104.41 1215.51C1097.7 1215.05 1090.96 1214.61 1084.24 1214.2C1070.79 1213.38 1057.28 1212.68 1043.76 1212.04C1036.99 1211.72 1030.22 1211.49 1023.45 1211.19L1003.12 1210.52C996.318 1210.41 989.548 1210.23 982.722 1210.17L972.538 1210.11C969.125 1210.06 965.74 1210.06 962.327 1210.08C955.529 1210.14 948.731 1210.11 941.904 1210.29L931.693 1210.49C928.308 1210.58 924.895 1210.7 921.481 1210.84L911.27 1211.25L901.059 1211.81C894.26 1212.1 887.49 1212.65 880.692 1213.15C853.528 1215.16 826.532 1218.55 799.988 1223.34C773.444 1228.24 747.408 1234.69 722.443 1242.89C697.479 1251.06 673.502 1260.96 651.358 1272.75C699.2 1253.78 750.821 1241.9 803.119 1236C855.53 1229.99 908.647 1229.87 961.481 1232.35C964.781 1232.5 968.082 1232.68 971.41 1232.88L981.311 1233.46C987.912 1233.84 994.541 1234.37 1001.14 1234.81L1020.94 1236.32C1027.57 1236.88 1034.17 1237.43 1040.77 1238.05C1054 1239.24 1067.21 1240.53 1080.44 1241.93C1093.67 1243.24 1106.92 1244.67 1120.15 1246.1C1173.13 1251.91 1226.07 1258.19 1279.22 1264.29C1385.48 1276.46 1492.62 1287.87 1601.3 1292.19C1655.6 1294.41 1710.24 1294.7 1764.94 1292.36C1792.27 1291.14 1819.61 1289.39 1846.86 1286.76C1874.11 1284.07 1901.24 1280.69 1928.24 1276.52L2040.87 1259.09L1929.51 1237.52Z" fill="#F7F8FD"/>
<path d="M1630.64 1356.28C1672.61 1365.74 1715.18 1372.72 1757.97 1376.75C1811.65 1381.82 1866.32 1382.55 1919.63 1373.68C1945.59 1369.36 1971.28 1362.68 1995.6 1352.29C2015.51 1343.79 2053.26 1329.96 2056.87 1304.42C2058.14 1295.37 2058.47 1281.68 2047.42 1274.62C2033.17 1265.51 2014.07 1274.68 2000.76 1279.9C1984.85 1286.15 1969.17 1292.77 1951.96 1297.62C1930.49 1303.66 1908.29 1308.71 1885.87 1313.17C1860.59 1318.22 1834.87 1322.75 1808.86 1326.16C1821.69 1328.35 1842.99 1331.3 1854.53 1332.79C1868.32 1334.54 1882.17 1336.12 1896.11 1337.34C1910.78 1338.66 1925.92 1339.65 1941.07 1340.14C1873.63 1354.1 1758.76 1366.33 1591.74 1346.57C1604.86 1350.04 1617.97 1353.42 1630.64 1356.28Z" fill="#003EB6"/>
<path d="M855.831 1631.28H794.901C791.262 1631.28 788.329 1630.75 785.903 1630.02C783.646 1629.12 782.095 1627.86 780.712 1626.08C779.33 1624.13 778.287 1621.44 777.779 1618.03C777.61 1617.12 777.61 1615.87 777.44 1614.99C777.44 1614.99 777.61 1602.09 777.779 1602.09H855.126C856.508 1602.09 859.978 1601.36 859.978 1595.82V1581.69C859.978 1576.14 856.508 1575.59 855.126 1575.59L765.847 1575.76C760.826 1576.14 756.482 1578.83 754.056 1583.29C753.209 1584.73 752.504 1586.16 752.166 1587.76L751.827 1610.32V1611.23C751.996 1619.63 752.871 1626.81 754.056 1632.71C755.635 1639.86 758.23 1645.79 761.503 1650.25C764.972 1654.92 769.457 1658.13 775.014 1660.12C780.374 1662.25 786.777 1663.15 794.394 1663.15H855.831C857.383 1663.15 860.824 1662.6 860.824 1657.05V1637.38C860.824 1631.8 857.383 1631.28 855.831 1631.28ZM856.001 1515.43H756.482C755.099 1515.43 751.827 1516.16 751.827 1521.88V1535.84C751.827 1541.38 755.099 1541.94 756.482 1541.94L856.001 1542.11C857.383 1542.11 860.824 1541.38 860.824 1535.84V1521.71C860.824 1516.16 857.383 1515.43 856.001 1515.43Z" fill="#F7F8FD"/>
<path d="M1570 1629.85H1509.07C1505.44 1629.85 1502.5 1629.32 1500.08 1628.59C1497.82 1627.69 1496.27 1626.43 1494.89 1624.65C1493.5 1622.69 1492.46 1620.01 1491.95 1616.59C1491.78 1615.69 1491.78 1614.43 1491.61 1613.56C1491.61 1613.56 1491.78 1600.66 1491.95 1600.66H1569.3C1570.68 1600.66 1574.15 1599.93 1574.15 1594.38V1580.26C1574.15 1574.71 1570.68 1574.16 1569.3 1574.16L1480.02 1574.33C1475 1574.71 1470.65 1577.4 1468.23 1581.86C1467.38 1583.29 1466.68 1584.72 1466.34 1586.33L1466 1608.89V1609.79C1466.17 1618.2 1467.04 1625.38 1468.23 1631.28C1469.81 1638.43 1472.4 1644.35 1475.68 1648.82C1479.15 1653.49 1483.63 1656.7 1489.19 1658.68C1494.55 1660.81 1500.95 1661.72 1508.57 1661.72H1570C1571.56 1661.72 1575 1661.16 1575 1655.62V1635.95C1575 1630.37 1571.56 1629.85 1570 1629.85ZM1570.17 1514H1470.65C1469.27 1514 1466 1514.73 1466 1520.45V1534.4C1466 1539.95 1469.27 1540.5 1470.65 1540.5L1570.17 1540.68C1571.56 1540.68 1575 1539.95 1575 1534.4V1520.28C1575 1514.73 1571.56 1514 1570.17 1514Z" fill="#F7F8FD"/>
<path d="M972.051 1575.24H920.119C917.524 1575.24 914.252 1574.16 914.252 1565.37V1552.15C914.252 1548.91 914.759 1546.4 915.634 1544.62C916.311 1543.54 917.355 1542.29 920.288 1542.29H990.724C992.107 1542.29 995.576 1541.76 995.576 1536.22V1521.88C995.576 1516.34 992.107 1515.78 990.724 1515.78H916.142C906.635 1515.78 899.696 1519.02 895.211 1525.65C890.698 1532.07 888.469 1540.68 888.469 1551.07V1564.67C888.469 1577.02 890.895 1587.06 895.211 1593.31C900.571 1600.66 908.525 1601.74 915.803 1601.74H967.706C970.302 1601.74 973.771 1602.82 973.771 1611.58V1626.99C973.771 1630.2 973.263 1632.71 972.22 1634.49C971.515 1635.57 970.471 1636.82 967.537 1636.82H893.66C892.108 1636.82 888.638 1637.38 888.638 1642.92V1657.23C888.638 1662.8 892.108 1663.33 893.66 1663.33H971.684C981.218 1663.33 988.299 1659.91 992.812 1653.29C997.128 1646.87 999.384 1638.43 999.384 1628.07V1612.31C999.384 1600.66 997.128 1591.53 992.643 1585.08C987.96 1578.62 981.049 1575.24 972.051 1575.24Z" fill="#F7F8FD"/>
<path d="M1132.74 1515.78H1069.75C1062.14 1515.78 1055.56 1516.86 1050.2 1518.85C1044.65 1520.98 1040.16 1524.39 1036.86 1528.86C1033.42 1533.33 1030.83 1539.25 1029.25 1546.4C1027.69 1553.38 1027.02 1561.99 1027.02 1571.82V1607.29C1027.02 1617.3 1027.69 1625.91 1029.25 1633.06C1030.83 1640.06 1033.42 1645.96 1036.86 1650.6C1040.33 1655.1 1044.85 1658.48 1050.2 1660.47C1055.56 1662.42 1062.14 1663.5 1069.75 1663.5H1132.74C1134.12 1663.5 1137.59 1662.8 1137.59 1657.23V1643.1C1137.59 1637.55 1134.12 1636.82 1132.74 1636.82H1070.63C1066.99 1636.82 1063.86 1636.47 1061.63 1635.57C1059.37 1634.87 1057.82 1633.61 1056.44 1631.63C1055.06 1629.85 1054.18 1627.16 1053.48 1623.75C1052.97 1620.19 1052.63 1615.69 1052.63 1610.32V1568.61C1052.63 1563.24 1052.97 1558.78 1053.48 1555.36C1054.18 1551.95 1055.06 1549.47 1056.44 1547.48C1057.82 1545.53 1059.37 1544.27 1061.63 1543.54C1063.86 1542.64 1066.99 1542.29 1070.63 1542.29H1132.74C1134.12 1542.29 1137.59 1541.59 1137.59 1535.84V1522.06C1137.59 1516.51 1134.12 1515.78 1132.74 1515.78Z" fill="#F7F8FD"/>
<path d="M1284.79 1515.78H1268.86C1267.31 1515.78 1264.01 1516.34 1264.01 1521.88V1610.15C1264.01 1615.52 1263.67 1620.19 1263.16 1623.57C1262.62 1626.99 1261.61 1629.67 1260.39 1631.63C1259.01 1633.44 1257.43 1634.66 1255.2 1635.57C1252.95 1636.3 1249.82 1636.82 1246.21 1636.82H1208.83C1205.19 1636.82 1202.06 1636.3 1199.83 1635.57C1197.57 1634.66 1196.02 1633.44 1194.64 1631.63C1193.43 1629.67 1192.38 1626.99 1191.68 1623.57C1191.17 1620.19 1190.83 1615.52 1190.83 1610.15V1521.88C1190.83 1516.34 1187.53 1515.78 1185.98 1515.78H1170.24C1168.66 1515.78 1165.22 1516.34 1165.22 1521.88V1607.29C1165.22 1617.3 1165.9 1625.91 1167.45 1632.88C1169.03 1640.06 1171.62 1645.96 1175.06 1650.43C1178.36 1655.1 1183.05 1658.31 1188.41 1660.47C1193.77 1662.42 1200.34 1663.33 1207.96 1663.33H1246.88C1254.5 1663.33 1261.07 1662.42 1266.43 1660.47C1271.99 1658.31 1276.47 1655.1 1279.94 1650.43C1283.41 1645.96 1285.81 1640.06 1287.39 1632.88C1288.94 1625.91 1289.62 1617.3 1289.62 1607.29V1521.88C1289.62 1516.34 1286.35 1515.78 1284.79 1515.78Z" fill="#F7F8FD"/>
<path d="M1435.45 1549.09C1433.7 1541.59 1430.77 1535.31 1427.13 1530.29C1423.32 1525.47 1418.3 1521.71 1412.43 1519.37C1406.54 1517.04 1399.63 1515.78 1391.47 1515.78H1331.11V1515.96C1326.09 1516.34 1321.74 1519.2 1319.15 1523.49C1318.47 1524.92 1317.77 1526.53 1317.43 1527.96L1317.26 1650.25C1317.6 1652.24 1318.3 1654.19 1319.15 1655.8C1321.91 1660.64 1326.93 1663.5 1332.29 1663.5H1391.47C1399.63 1663.5 1406.71 1662.25 1412.43 1659.91C1418.3 1657.61 1423.32 1653.84 1427.13 1648.82C1430.77 1643.98 1433.7 1637.73 1435.45 1630.2C1437.17 1622.67 1438.05 1613.74 1438.05 1603.7V1575.59C1438.05 1565.58 1437.17 1556.62 1435.45 1549.09ZM1342.7 1635.92V1543.37C1342.7 1542.64 1342.87 1542.29 1343.04 1542.29H1390.97C1394.94 1542.29 1398.41 1542.84 1401.18 1543.89C1403.94 1544.97 1406.03 1546.4 1407.58 1548.74C1409.3 1551.07 1410.51 1554.11 1411.22 1557.87C1411.9 1561.99 1412.43 1567.01 1412.43 1572.9V1606.38C1412.43 1612.31 1411.9 1617.3 1411.22 1621.24C1410.51 1625.18 1409.3 1628.24 1407.58 1630.55C1406.03 1632.71 1403.94 1634.31 1401.18 1635.39C1398.41 1636.47 1394.94 1636.82 1390.97 1636.82H1342.87C1342.87 1636.82 1342.7 1636.65 1342.7 1635.92Z" fill="#F7F8FD"/>
<path d="M1720.31 1558.57C1720.31 1558.78 1720.31 1558.95 1720.31 1559.13C1720.31 1559.3 1720.31 1559.48 1720.31 1559.65V1558.57ZM1723.61 1655.62L1693.31 1601.92C1701.8 1600.84 1708.38 1597.07 1712.69 1591C1717.54 1583.65 1720.14 1573.08 1720.31 1559.13C1720.14 1545.15 1717.54 1534.58 1712.69 1527.25C1707.5 1519.55 1698.87 1515.78 1687.11 1515.78H1607.33C1605.75 1515.78 1602.31 1516.34 1602.31 1522.06V1536.22C1602.31 1541.76 1605.75 1542.29 1607.33 1542.29H1682.59C1687.11 1542.29 1690.04 1543.54 1691.76 1546.23C1693.68 1548.91 1694.53 1553.2 1694.53 1559.13C1694.53 1565.02 1693.68 1569.31 1691.76 1572C1690.04 1574.68 1687.11 1575.94 1682.59 1575.94H1607.33C1605.75 1575.94 1602.31 1576.49 1602.31 1582.04V1657.23C1602.31 1662.8 1605.75 1663.5 1607.33 1663.5H1623.07C1624.63 1663.5 1627.93 1662.8 1627.93 1657.23V1602.44H1664.43L1695.74 1659.91C1696.44 1660.99 1696.95 1661.9 1697.66 1662.42C1698.5 1663.15 1699.72 1663.5 1701.3 1663.5H1720.31C1722.4 1663.5 1723.95 1662.07 1724.31 1659.91C1724.48 1658.13 1724.31 1656.7 1723.61 1655.62Z" fill="#F7F8FD"/>
<path d="M1772.86 1515.78H1756.95C1755.54 1515.78 1752.1 1516.51 1752.1 1522.06V1657.23C1752.1 1662.8 1755.54 1663.5 1756.95 1663.5H1772.86C1774.24 1663.5 1777.71 1662.8 1777.71 1657.23V1522.06C1777.71 1516.51 1774.24 1515.78 1772.86 1515.78Z" fill="#F7F8FD"/>
<path d="M1898.12 1532.45C1897.78 1531.55 1897.41 1530.47 1897.07 1529.76C1894.31 1520.45 1885.99 1513.83 1876.48 1513.83C1872.17 1513.83 1867.99 1515.08 1864.55 1517.59C1863.51 1518.12 1862.63 1518.85 1861.96 1519.37C1859.36 1521.71 1856.76 1526 1854.34 1532.45L1806.05 1656.53C1805.54 1658.13 1805.37 1659.74 1805.71 1660.82C1805.88 1661.9 1806.75 1663.5 1809.52 1663.5H1828.56C1830.81 1663.5 1832.53 1662.07 1833.41 1659.74L1843.25 1634.14H1881.17C1883.06 1634.14 1884.78 1633.23 1885.65 1631.63C1886.69 1630.2 1886.86 1628.24 1886.36 1626.43L1880.12 1610.5C1879.25 1608.37 1877.36 1606.94 1875.1 1606.94H1853.63L1875.78 1548.91C1875.97 1548.56 1876.14 1548.39 1876.14 1548.39H1876.82C1876.82 1548.39 1876.82 1548.39 1876.99 1548.74L1919.92 1659.56C1920.77 1662.07 1922.52 1663.5 1924.94 1663.5H1943.45C1946.21 1663.5 1946.92 1661.72 1947.26 1660.82C1947.6 1659.74 1947.43 1658.13 1946.75 1656.53L1898.12 1532.45Z" fill="#F7F8FD"/>
<path d="M1107.74 1749.59H1113.52C1114.23 1749.59 1114.82 1748.95 1114.82 1748.25V1742.79C1114.82 1741.88 1114.48 1741.07 1113.89 1740.45L1106.24 1732.37C1105.57 1731.67 1104.78 1731.32 1103.65 1731.32H1078.97C1077.92 1731.32 1077.25 1731.58 1076.46 1732.37L1068.67 1740.45C1068.16 1740.98 1067.63 1741.88 1067.63 1742.79V1765.52C1067.63 1766.43 1068.16 1767.33 1068.67 1767.86L1076.46 1775.94C1077.25 1776.73 1077.92 1777 1078.97 1777H1103.65C1104.78 1777 1105.57 1776.65 1106.24 1775.94L1113.89 1767.86C1114.48 1767.25 1114.82 1766.43 1114.82 1765.52V1760.07C1114.82 1759.37 1114.23 1758.72 1113.52 1758.72H1107.74C1107.03 1758.72 1106.41 1759.37 1106.41 1760.07V1763.22C1106.41 1763.83 1106.33 1764.27 1105.82 1764.74L1103.06 1767.42C1102.6 1767.86 1102.27 1768.12 1101.67 1768.12H1081.39C1080.97 1768.12 1080.63 1767.95 1080.09 1767.42L1077.33 1764.74C1076.91 1764.27 1076.71 1763.83 1076.71 1763.22V1745.09C1076.71 1744.48 1076.91 1744.04 1077.33 1743.58L1080.09 1740.89C1080.63 1740.37 1080.97 1740.19 1081.39 1740.19H1101.67C1102.27 1740.19 1102.6 1740.45 1103.06 1740.89L1105.82 1743.58C1106.33 1744.04 1106.41 1744.48 1106.41 1745.09V1748.25C1106.41 1748.95 1107.03 1749.59 1107.74 1749.59Z" fill="#003EB6"/>
<path d="M1183.6 1740.89L1175.95 1732.83C1175.27 1732.11 1174.48 1731.75 1173.36 1731.75H1148.5C1147.38 1731.75 1146.61 1732.11 1145.91 1732.83L1138.29 1740.89C1137.67 1741.53 1137.33 1742.32 1137.33 1743.23V1775.22C1137.33 1775.94 1137.95 1776.56 1138.63 1776.56H1144.44C1145.12 1776.56 1145.74 1775.94 1145.74 1775.22V1761.88H1176.12V1775.22C1176.12 1775.94 1176.74 1776.56 1177.45 1776.56H1183.23C1183.93 1776.56 1184.53 1775.94 1184.53 1775.22V1743.23C1184.53 1742.32 1184.19 1741.53 1183.6 1740.89ZM1145.74 1754.05V1745.56C1145.74 1744.92 1145.91 1744.48 1146.33 1744.04L1149.13 1741.33L1149.63 1740.89C1149.8 1740.72 1150.06 1740.63 1150.51 1740.63H1171.38C1171.72 1740.63 1171.97 1740.72 1172.23 1740.89L1172.76 1741.33L1175.53 1744.04C1175.95 1744.48 1176.12 1744.92 1176.12 1745.56V1754.05H1145.74Z" fill="#003EB6"/>
<path d="M1437.26 1740.14L1429.62 1732.08C1428.94 1731.35 1428.15 1731 1427.02 1731H1402.17C1401.04 1731 1400.28 1731.35 1399.58 1732.08L1391.96 1740.14C1391.34 1740.78 1391 1741.57 1391 1742.47V1774.46C1391 1775.19 1391.62 1775.8 1392.3 1775.8H1398.11C1398.79 1775.8 1399.41 1775.19 1399.41 1774.46V1761.12H1429.79V1774.46C1429.79 1775.19 1430.41 1775.8 1431.11 1775.8H1436.89C1437.6 1775.8 1438.19 1775.19 1438.19 1774.46V1742.47C1438.19 1741.57 1437.85 1740.78 1437.26 1740.14ZM1399.41 1753.3V1744.81C1399.41 1744.16 1399.58 1743.73 1400 1743.29L1402.79 1740.57L1403.3 1740.14C1403.47 1739.96 1403.72 1739.87 1404.17 1739.87H1425.05C1425.39 1739.87 1425.64 1739.96 1425.89 1740.14L1426.43 1740.57L1429.19 1743.29C1429.62 1743.73 1429.79 1744.16 1429.79 1744.81V1753.3H1399.41Z" fill="#003EB6"/>
<path d="M1254.52 1740.63L1246.7 1732.75C1246.11 1732.11 1245.32 1731.75 1244.45 1731.75H1208.34C1207.66 1731.75 1207.04 1732.37 1207.04 1733.1V1775.22C1207.04 1775.94 1207.66 1776.56 1208.34 1776.56H1214.32C1215.02 1776.56 1215.62 1775.94 1215.62 1775.22V1766.69H1239.09L1244.45 1775.74C1244.81 1776.3 1245.24 1776.56 1245.74 1776.56H1252.26C1253.3 1776.56 1253.81 1775.57 1253.3 1774.69L1247.41 1764.91L1254.52 1757.56C1255.02 1757.03 1255.53 1756.13 1255.53 1755.22V1743.31C1255.53 1742.15 1255.19 1741.33 1254.52 1740.63ZM1215.62 1740.45H1241.68C1242.3 1740.45 1242.72 1740.63 1243.15 1741.07L1245.74 1743.93L1246.19 1744.48C1246.36 1744.74 1246.45 1745.01 1246.45 1745.39V1752.89C1246.45 1753.53 1246.28 1753.97 1245.83 1754.43L1243.06 1757.12C1242.56 1757.64 1242.22 1757.82 1241.77 1757.82H1215.62V1740.45Z" fill="#003EB6"/>
<path d="M1317.89 1748.6C1317.89 1749.76 1318.23 1750.58 1318.93 1751.28L1325 1757.38C1325.59 1757.91 1326.38 1758.37 1327.25 1758.37H1352.95C1353.57 1758.37 1354 1758.55 1354.45 1758.99L1355.74 1760.62C1355.91 1760.88 1356 1761.15 1356 1761.5V1763.66C1356 1764.27 1355.83 1764.74 1355.38 1765.17L1353.49 1766.98C1352.95 1767.42 1352.61 1767.68 1352.19 1767.68H1320.65C1319.98 1767.68 1319.36 1768.33 1319.36 1769.03V1775.22C1319.36 1775.94 1319.98 1776.56 1320.65 1776.56H1354.62C1355.66 1776.56 1356.34 1776.3 1357.13 1775.48L1364.04 1768.33C1364.57 1767.77 1365.08 1766.87 1365.08 1765.99V1758.55C1365.08 1757.38 1364.74 1756.48 1364.04 1755.86L1358.85 1750.67C1358.25 1750.11 1357.47 1749.68 1356.59 1749.68H1330.02C1329.4 1749.68 1328.97 1749.5 1328.55 1749.03L1327.25 1747.43C1327.08 1747.17 1326.97 1746.9 1326.97 1746.55V1744.66C1326.97 1744.04 1327.17 1743.58 1327.59 1743.14L1329.48 1741.33C1330.02 1740.89 1330.36 1740.63 1330.81 1740.63H1361.44C1362.15 1740.63 1362.74 1739.99 1362.74 1739.29V1733.1C1362.74 1732.37 1362.15 1731.75 1361.44 1731.75H1328.38C1327.34 1731.75 1326.63 1732.02 1325.87 1732.83L1318.93 1739.99C1318.42 1740.54 1317.89 1741.45 1317.89 1742.32V1748.6Z" fill="#003EB6"/>
<path d="M1457.3 1733.1V1765.09C1457.3 1765.99 1457.83 1766.87 1458.34 1767.42L1466.13 1775.48C1466.92 1776.3 1467.59 1776.56 1468.64 1776.56H1500.6C1501.3 1776.56 1501.89 1775.94 1501.89 1775.22V1769.03C1501.89 1768.33 1501.3 1767.68 1500.6 1767.68H1471.51C1471.06 1767.68 1470.72 1767.51 1470.22 1766.98L1467 1763.83C1466.58 1763.39 1466.38 1762.93 1466.38 1762.31V1733.1C1466.38 1732.37 1465.79 1731.75 1465.08 1731.75H1458.59C1457.92 1731.75 1457.3 1732.37 1457.3 1733.1Z" fill="#003EB6"/>
<path d="M1534.11 1744.04L1536.87 1741.33C1537.41 1740.8 1537.75 1740.63 1538.17 1740.63H1569.45C1570.13 1740.63 1570.75 1739.99 1570.75 1739.29V1733.1C1570.75 1732.37 1570.13 1731.75 1569.45 1731.75H1535.32C1534.28 1731.75 1533.6 1732.02 1532.81 1732.83L1525.45 1740.45C1524.94 1740.98 1524.4 1741.88 1524.4 1742.79V1765.44C1524.4 1766.6 1524.74 1767.42 1525.45 1768.12L1532.81 1775.57C1533.4 1776.21 1534.19 1776.56 1535.07 1776.56H1569.45C1570.13 1776.56 1570.75 1775.94 1570.75 1775.22V1769.2C1570.75 1768.5 1570.13 1767.86 1569.45 1767.86H1538.25C1537.66 1767.86 1537.21 1767.68 1536.79 1767.25L1533.77 1763.83C1533.6 1763.57 1533.49 1763.31 1533.49 1762.93V1758.29H1565.19C1565.9 1758.29 1566.49 1757.64 1566.49 1756.94V1750.76C1566.49 1750.03 1565.9 1749.41 1565.19 1749.41H1533.49V1745.56C1533.49 1744.92 1533.68 1744.48 1534.11 1744.04Z" fill="#003EB6"/>
</svg>
