<svg width="2709" height="2802" viewBox="0 0 2709 2802" fill="none" xmlns="http://www.w3.org/2000/svg">
<path d="M1930.22 1237.52C1912.89 1234.16 1895.71 1229.73 1878.8 1224.33C1861.93 1218.84 1845.22 1212.59 1828.74 1205.68C1812.24 1198.76 1795.84 1191.35 1779.42 1183.67L1729.72 1160.26C1712.96 1152.41 1695.89 1144.7 1678.31 1137.38C1673.88 1135.57 1669.51 1133.73 1665.02 1132.01L1658.3 1129.38L1651.53 1126.81C1647.02 1125.09 1642.39 1123.51 1637.82 1121.88C1635.5 1121.06 1633.16 1120.3 1630.85 1119.52C1628.53 1118.76 1626.22 1117.94 1623.85 1117.21C1619.14 1115.75 1614.45 1114.26 1609.65 1112.92C1607.26 1112.22 1604.88 1111.52 1602.46 1110.88L1595.21 1109.01C1590.38 1107.75 1585.56 1106.47 1580.64 1105.45L1573.31 1103.81C1570.85 1103.29 1568.4 1102.7 1565.94 1102.27L1551.1 1099.52L1536.17 1097.25C1534.9 1097.07 1533.66 1096.84 1532.42 1096.69L1528.67 1096.25L1521.16 1095.32C1518.65 1095.06 1516.17 1094.68 1513.65 1094.47L1506.12 1093.8C1486.03 1091.99 1465.85 1091.15 1445.79 1091.35C1425.7 1091.55 1405.72 1092.58 1385.94 1094.41C1346.32 1098.09 1307.57 1104.98 1269.9 1113.91C1232.28 1122.96 1195.68 1134.11 1160.27 1146.89C1142.58 1153.29 1125.08 1160 1107.95 1167.21C1090.8 1174.36 1073.92 1181.83 1057.33 1189.68C1092.86 1177.45 1128.64 1165.87 1165.1 1155.94C1201.47 1145.9 1238.44 1137.41 1275.77 1130.78C1294.45 1127.48 1313.24 1124.83 1332.07 1122.64C1341.49 1121.5 1350.92 1120.68 1360.34 1119.84L1374.51 1118.82C1379.22 1118.52 1383.96 1118.35 1388.67 1118.11C1407.55 1117.3 1426.43 1117.12 1445.17 1117.76L1459.19 1118.44C1463.88 1118.73 1468.53 1119.14 1473.16 1119.46L1476.66 1119.72L1487.07 1120.77C1489.39 1121 1491.7 1121.21 1494.01 1121.47L1507.78 1123.28C1510.07 1123.54 1512.33 1123.98 1514.61 1124.33L1521.44 1125.41L1524.86 1125.97C1525.99 1126.14 1527.11 1126.37 1528.21 1126.58L1541.7 1129.18L1555.02 1132.18C1557.28 1132.65 1559.45 1133.29 1561.63 1133.85L1568.2 1135.54C1572.6 1136.59 1576.89 1137.93 1581.21 1139.19L1587.67 1141.09C1589.82 1141.76 1591.93 1142.46 1594.05 1143.16C1598.31 1144.5 1602.51 1146.02 1606.72 1147.48C1640.38 1159.47 1672.58 1174.8 1704.86 1190.91C1737.17 1207.02 1769.65 1224.01 1804.53 1239.33C1811.19 1242.25 1817.96 1245.11 1824.82 1247.88C1804.17 1249.52 1783.45 1250.74 1762.68 1251.65L1742.96 1252.38L1723.21 1252.87C1716.63 1253.08 1710.03 1253.08 1703.42 1253.17L1693.52 1253.28C1690.22 1253.31 1686.92 1253.28 1683.64 1253.28C1657.23 1253.4 1630.76 1252.84 1604.29 1252.03C1577.82 1251.24 1551.33 1249.95 1524.8 1248.44C1498.27 1246.92 1471.72 1245.17 1445.17 1243.15C1392.06 1239.24 1338.87 1234.51 1285.53 1229.87C1232.17 1225.23 1178.67 1220.62 1124.97 1216.89L1104.82 1215.51C1098.1 1215.05 1091.36 1214.61 1084.64 1214.2C1071.18 1213.38 1057.67 1212.68 1044.15 1212.04C1037.38 1211.72 1030.61 1211.49 1023.83 1211.19L1003.49 1210.52C996.686 1210.41 989.914 1210.23 983.085 1210.17L972.898 1210.11C969.483 1210.06 966.097 1210.06 962.683 1210.08C955.882 1210.14 949.081 1210.11 942.252 1210.29L932.037 1210.49C928.651 1210.58 925.236 1210.7 921.822 1210.84L911.607 1211.25L901.391 1211.81C894.591 1212.1 887.818 1212.65 881.018 1213.15C853.843 1215.16 826.838 1218.55 800.284 1223.34C773.73 1228.24 747.684 1234.69 722.71 1242.89C697.737 1251.06 673.751 1260.96 651.599 1272.75C699.458 1253.78 751.098 1241.9 803.416 1236C855.846 1229.99 908.982 1229.87 961.836 1232.35C965.138 1232.5 968.439 1232.68 971.769 1232.88L981.674 1233.46C988.277 1233.84 994.908 1234.37 1001.51 1234.81L1021.32 1236.32C1027.95 1236.88 1034.56 1237.43 1041.16 1238.05C1054.39 1239.24 1067.6 1240.53 1080.83 1241.93C1094.07 1243.24 1107.33 1244.67 1120.57 1246.1C1173.56 1251.91 1226.53 1258.19 1279.69 1264.29C1385.99 1276.46 1493.17 1287.87 1601.89 1292.19C1656.21 1294.41 1710.87 1294.7 1765.59 1292.36C1792.93 1291.14 1820.28 1289.39 1847.54 1286.76C1874.8 1284.07 1901.94 1280.69 1928.95 1276.52L2041.63 1259.09L1930.22 1237.52Z" fill="black"/>
<path d="M1631.24 1356.28C1673.23 1365.74 1715.81 1372.72 1758.62 1376.75C1812.32 1381.82 1867.01 1382.55 1920.34 1373.68C1946.3 1369.36 1972.01 1362.68 1996.34 1352.29C2016.26 1343.79 2054.01 1329.96 2057.63 1304.42C2058.9 1295.37 2059.24 1281.68 2048.17 1274.62C2033.92 1265.51 2014.82 1274.68 2001.5 1279.9C1985.58 1286.15 1969.89 1292.77 1952.68 1297.62C1931.21 1303.66 1909 1308.71 1886.56 1313.17C1861.28 1318.22 1835.55 1322.75 1809.53 1326.16C1822.37 1328.35 1843.67 1331.3 1855.21 1332.79C1869.01 1334.54 1882.87 1336.12 1896.81 1337.34C1911.48 1338.66 1926.64 1339.65 1941.79 1340.14C1874.32 1354.1 1759.41 1366.33 1592.33 1346.57C1605.45 1350.04 1618.57 1353.42 1631.24 1356.28Z" fill="#003EB6"/>
<path d="M856.147 1631.28H795.195C791.555 1631.28 788.62 1630.75 786.193 1630.02C783.936 1629.12 782.384 1627.86 781.001 1626.08C779.618 1624.13 778.574 1621.44 778.066 1618.03C777.897 1617.12 777.897 1615.87 777.728 1614.99C777.728 1614.99 777.897 1602.09 778.066 1602.09H855.442C856.825 1602.09 860.296 1601.36 860.296 1595.82V1581.69C860.296 1576.14 856.825 1575.59 855.442 1575.59L766.13 1575.76C761.107 1576.14 756.761 1578.83 754.334 1583.29C753.488 1584.73 752.782 1586.16 752.444 1587.76L752.105 1610.32V1611.23C752.274 1619.63 753.149 1626.81 754.334 1632.71C755.915 1639.86 758.511 1645.79 761.784 1650.25C765.255 1654.92 769.742 1658.13 775.301 1660.12C780.662 1662.25 787.068 1663.15 794.687 1663.15H856.147C857.7 1663.15 861.142 1662.6 861.142 1657.05V1637.38C861.142 1631.8 857.7 1631.28 856.147 1631.28ZM856.317 1515.43H756.761C755.378 1515.43 752.105 1516.16 752.105 1521.88V1535.84C752.105 1541.38 755.378 1541.94 756.761 1541.94L856.317 1542.11C857.7 1542.11 861.142 1541.38 861.142 1535.84V1521.71C861.142 1516.16 857.7 1515.43 856.317 1515.43Z" fill="black"/>
<path d="M1570.04 1631.85H1509.09C1505.45 1631.85 1502.52 1631.32 1500.09 1630.59C1497.83 1629.69 1496.28 1628.43 1494.9 1626.65C1493.51 1624.69 1492.47 1622.01 1491.96 1618.59C1491.79 1617.69 1491.79 1616.43 1491.62 1615.56C1491.62 1615.56 1491.79 1602.66 1491.96 1602.66H1569.34C1570.72 1602.66 1574.19 1601.93 1574.19 1596.38V1582.26C1574.19 1576.71 1570.72 1576.16 1569.34 1576.16L1480.02 1576.33C1475 1576.71 1470.66 1579.4 1468.23 1583.86C1467.38 1585.29 1466.68 1586.72 1466.34 1588.33L1466 1610.89V1611.79C1466.17 1620.2 1467.04 1627.38 1468.23 1633.28C1469.81 1640.43 1472.41 1646.35 1475.68 1650.82C1479.15 1655.49 1483.64 1658.7 1489.2 1660.68C1494.56 1662.81 1500.96 1663.72 1508.58 1663.72H1570.04C1571.59 1663.72 1575.04 1663.16 1575.04 1657.62V1637.95C1575.04 1632.37 1571.59 1631.85 1570.04 1631.85ZM1570.21 1516H1470.66C1469.27 1516 1466 1516.73 1466 1522.45V1536.4C1466 1541.95 1469.27 1542.5 1470.66 1542.5L1570.21 1542.68C1571.59 1542.68 1575.04 1541.95 1575.04 1536.4V1522.28C1575.04 1516.73 1571.59 1516 1570.21 1516Z" fill="black"/>
<path d="M972.41 1575.24H920.459C917.863 1575.24 914.589 1574.16 914.589 1565.37V1552.15C914.589 1548.91 915.097 1546.4 915.972 1544.62C916.649 1543.54 917.693 1542.29 920.628 1542.29H991.09C992.473 1542.29 995.944 1541.76 995.944 1536.22V1521.88C995.944 1516.34 992.473 1515.78 991.09 1515.78H916.48C906.97 1515.78 900.028 1519.02 895.542 1525.65C891.027 1532.07 888.797 1540.68 888.797 1551.07V1564.67C888.797 1577.02 891.224 1587.06 895.542 1593.31C900.903 1600.66 908.861 1601.74 916.141 1601.74H968.064C970.66 1601.74 974.131 1602.82 974.131 1611.58V1626.99C974.131 1630.2 973.623 1632.71 972.579 1634.49C971.873 1635.57 970.829 1636.82 967.895 1636.82H893.99C892.438 1636.82 888.967 1637.38 888.967 1642.92V1657.23C888.967 1662.8 892.438 1663.33 893.99 1663.33H972.043C981.581 1663.33 988.664 1659.91 993.179 1653.29C997.496 1646.87 999.754 1638.43 999.754 1628.07V1612.31C999.754 1600.66 997.496 1591.53 993.009 1585.08C988.325 1578.62 981.411 1575.24 972.41 1575.24Z" fill="black"/>
<path d="M1133.16 1515.78H1070.15C1062.53 1515.78 1055.95 1516.86 1050.59 1518.85C1045.03 1520.98 1040.55 1524.39 1037.25 1528.86C1033.8 1533.33 1031.21 1539.25 1029.63 1546.4C1028.07 1553.38 1027.4 1561.99 1027.4 1571.82V1607.29C1027.4 1617.3 1028.07 1625.91 1029.63 1633.06C1031.21 1640.06 1033.8 1645.96 1037.25 1650.6C1040.72 1655.1 1045.23 1658.48 1050.59 1660.47C1055.95 1662.42 1062.53 1663.5 1070.15 1663.5H1133.16C1134.54 1663.5 1138.01 1662.8 1138.01 1657.23V1643.1C1138.01 1637.55 1134.54 1636.82 1133.16 1636.82H1071.02C1067.38 1636.82 1064.25 1636.47 1062.02 1635.57C1059.76 1634.87 1058.21 1633.61 1056.83 1631.63C1055.45 1629.85 1054.57 1627.16 1053.87 1623.75C1053.36 1620.19 1053.02 1615.69 1053.02 1610.32V1568.61C1053.02 1563.24 1053.36 1558.78 1053.87 1555.36C1054.57 1551.95 1055.45 1549.47 1056.83 1547.48C1058.21 1545.53 1059.76 1544.27 1062.02 1543.54C1064.25 1542.64 1067.38 1542.29 1071.02 1542.29H1133.16C1134.54 1542.29 1138.01 1541.59 1138.01 1535.84V1522.06C1138.01 1516.51 1134.54 1515.78 1133.16 1515.78Z" fill="black"/>
<path d="M1285.27 1515.78H1269.33C1267.77 1515.78 1264.47 1516.34 1264.47 1521.88V1610.15C1264.47 1615.52 1264.13 1620.19 1263.63 1623.57C1263.09 1626.99 1262.07 1629.67 1260.86 1631.63C1259.48 1633.44 1257.9 1634.66 1255.67 1635.57C1253.41 1636.3 1250.28 1636.82 1246.67 1636.82H1209.28C1205.64 1636.82 1202.5 1636.3 1200.27 1635.57C1198.02 1634.66 1196.46 1633.44 1195.08 1631.63C1193.87 1629.67 1192.82 1626.99 1192.12 1623.57C1191.61 1620.19 1191.27 1615.52 1191.27 1610.15V1521.88C1191.27 1516.34 1187.97 1515.78 1186.42 1515.78H1170.67C1169.09 1515.78 1165.65 1516.34 1165.65 1521.88V1607.29C1165.65 1617.3 1166.33 1625.91 1167.88 1632.88C1169.46 1640.06 1172.06 1645.96 1175.5 1650.43C1178.8 1655.1 1183.48 1658.31 1188.85 1660.47C1194.21 1662.42 1200.78 1663.33 1208.4 1663.33H1247.34C1254.96 1663.33 1261.54 1662.42 1266.9 1660.47C1272.46 1658.31 1276.94 1655.1 1280.42 1650.43C1283.89 1645.96 1286.29 1640.06 1287.87 1632.88C1289.42 1625.91 1290.09 1617.3 1290.09 1607.29V1521.88C1290.09 1516.34 1286.82 1515.78 1285.27 1515.78Z" fill="black"/>
<path d="M1435.98 1549.09C1434.23 1541.59 1431.3 1535.31 1427.66 1530.29C1423.85 1525.47 1418.82 1521.71 1412.95 1519.37C1407.06 1517.04 1400.14 1515.78 1391.99 1515.78H1331.6V1515.96C1326.58 1516.34 1322.23 1519.2 1319.63 1523.49C1318.96 1524.92 1318.25 1526.53 1317.91 1527.96L1317.74 1650.25C1318.08 1652.24 1318.79 1654.19 1319.63 1655.8C1322.4 1660.64 1327.42 1663.5 1332.78 1663.5H1391.99C1400.14 1663.5 1407.23 1662.25 1412.95 1659.91C1418.82 1657.61 1423.85 1653.84 1427.66 1648.82C1431.3 1643.98 1434.23 1637.73 1435.98 1630.2C1437.7 1622.67 1438.58 1613.74 1438.58 1603.7V1575.59C1438.58 1565.58 1437.7 1556.62 1435.98 1549.09ZM1343.2 1635.92V1543.37C1343.2 1542.64 1343.37 1542.29 1343.54 1542.29H1391.48C1395.46 1542.29 1398.93 1542.84 1401.69 1543.89C1404.46 1544.97 1406.55 1546.4 1408.1 1548.74C1409.82 1551.07 1411.04 1554.11 1411.74 1557.87C1412.42 1561.99 1412.95 1567.01 1412.95 1572.9V1606.38C1412.95 1612.31 1412.42 1617.3 1411.74 1621.24C1411.04 1625.18 1409.82 1628.24 1408.1 1630.55C1406.55 1632.71 1404.46 1634.31 1401.69 1635.39C1398.93 1636.47 1395.46 1636.82 1391.48 1636.82H1343.37C1343.37 1636.82 1343.2 1636.65 1343.2 1635.92Z" fill="black"/>
<path d="M1720.94 1558.57C1720.94 1558.78 1720.94 1558.95 1720.94 1559.13C1720.94 1559.3 1720.94 1559.48 1720.94 1559.65V1558.57ZM1724.25 1655.62L1693.94 1601.92C1702.43 1600.84 1709.01 1597.07 1713.32 1591C1718.18 1583.65 1720.77 1573.08 1720.94 1559.13C1720.77 1545.15 1718.18 1534.58 1713.32 1527.25C1708.13 1519.55 1699.5 1515.78 1687.73 1515.78H1607.93C1606.35 1515.78 1602.9 1516.34 1602.9 1522.06V1536.22C1602.9 1541.76 1606.35 1542.29 1607.93 1542.29H1683.21C1687.73 1542.29 1690.66 1543.54 1692.39 1546.23C1694.3 1548.91 1695.15 1553.2 1695.15 1559.13C1695.15 1565.02 1694.3 1569.31 1692.39 1572C1690.66 1574.68 1687.73 1575.94 1683.21 1575.94H1607.93C1606.35 1575.94 1602.9 1576.49 1602.9 1582.04V1657.23C1602.9 1662.8 1606.35 1663.5 1607.93 1663.5H1623.67C1625.23 1663.5 1628.53 1662.8 1628.53 1657.23V1602.44H1665.04L1696.36 1659.91C1697.07 1660.99 1697.58 1661.9 1698.28 1662.42C1699.13 1663.15 1700.34 1663.5 1701.92 1663.5H1720.94C1723.03 1663.5 1724.58 1662.07 1724.95 1659.91C1725.12 1658.13 1724.95 1656.7 1724.25 1655.62Z" fill="black"/>
<path d="M1773.51 1515.78H1757.6C1756.19 1515.78 1752.74 1516.51 1752.74 1522.06V1657.23C1752.74 1662.8 1756.19 1663.5 1757.6 1663.5H1773.51C1774.9 1663.5 1778.37 1662.8 1778.37 1657.23V1522.06C1778.37 1516.51 1774.9 1515.78 1773.51 1515.78Z" fill="black"/>
<path d="M1898.82 1532.45C1898.48 1531.55 1898.11 1530.47 1897.77 1529.76C1895.01 1520.45 1886.68 1513.83 1877.18 1513.83C1872.86 1513.83 1868.68 1515.08 1865.24 1517.59C1864.19 1518.12 1863.32 1518.85 1862.64 1519.37C1860.05 1521.71 1857.45 1526 1855.02 1532.45L1806.71 1656.53C1806.21 1658.13 1806.04 1659.74 1806.37 1660.82C1806.54 1661.9 1807.42 1663.5 1810.18 1663.5H1829.23C1831.49 1663.5 1833.21 1662.07 1834.09 1659.74L1843.93 1634.14H1881.86C1883.75 1634.14 1885.47 1633.23 1886.35 1631.63C1887.39 1630.2 1887.56 1628.24 1887.05 1626.43L1880.82 1610.5C1879.94 1608.37 1878.05 1606.94 1875.79 1606.94H1854.32L1876.47 1548.91C1876.67 1548.56 1876.84 1548.39 1876.84 1548.39H1877.51C1877.51 1548.39 1877.51 1548.39 1877.68 1548.74L1920.63 1659.56C1921.48 1662.07 1923.23 1663.5 1925.65 1663.5H1944.17C1946.93 1663.5 1947.64 1661.72 1947.98 1660.82C1948.31 1659.74 1948.15 1658.13 1947.47 1656.53L1898.82 1532.45Z" fill="black"/>
<path d="M1108.15 1749.59H1113.93C1114.64 1749.59 1115.23 1748.95 1115.23 1748.25V1742.79C1115.23 1741.88 1114.89 1741.07 1114.3 1740.45L1106.65 1732.37C1105.97 1731.67 1105.18 1731.32 1104.06 1731.32H1079.36C1078.32 1731.32 1077.64 1731.58 1076.85 1732.37L1069.06 1740.45C1068.56 1740.98 1068.02 1741.88 1068.02 1742.79V1765.52C1068.02 1766.43 1068.56 1767.33 1069.06 1767.86L1076.85 1775.94C1077.64 1776.73 1078.32 1777 1079.36 1777H1104.06C1105.18 1777 1105.97 1776.65 1106.65 1775.94L1114.3 1767.86C1114.89 1767.25 1115.23 1766.43 1115.23 1765.52V1760.07C1115.23 1759.37 1114.64 1758.72 1113.93 1758.72H1108.15C1107.44 1758.72 1106.82 1759.37 1106.82 1760.07V1763.22C1106.82 1763.83 1106.74 1764.27 1106.23 1764.74L1103.46 1767.42C1103.01 1767.86 1102.67 1768.12 1102.08 1768.12H1081.79C1081.37 1768.12 1081.03 1767.95 1080.49 1767.42L1077.73 1764.74C1077.3 1764.27 1077.11 1763.83 1077.11 1763.22V1745.09C1077.11 1744.48 1077.3 1744.04 1077.73 1743.58L1080.49 1740.89C1081.03 1740.37 1081.37 1740.19 1081.79 1740.19H1102.08C1102.67 1740.19 1103.01 1740.45 1103.46 1740.89L1106.23 1743.58C1106.74 1744.04 1106.82 1744.48 1106.82 1745.09V1748.25C1106.82 1748.95 1107.44 1749.59 1108.15 1749.59Z" fill="#003EB6"/>
<path d="M1184.03 1740.89L1176.39 1732.83C1175.71 1732.11 1174.92 1731.75 1173.79 1731.75H1148.93C1147.8 1731.75 1147.04 1732.11 1146.33 1732.83L1138.71 1740.89C1138.09 1741.53 1137.75 1742.32 1137.75 1743.23V1775.22C1137.75 1775.94 1138.37 1776.56 1139.05 1776.56H1144.87C1145.54 1776.56 1146.16 1775.94 1146.16 1775.22V1761.88H1176.55V1775.22C1176.55 1775.94 1177.18 1776.56 1177.88 1776.56H1183.67C1184.37 1776.56 1184.96 1775.94 1184.96 1775.22V1743.23C1184.96 1742.32 1184.63 1741.53 1184.03 1740.89ZM1146.16 1754.05V1745.56C1146.16 1744.92 1146.33 1744.48 1146.76 1744.04L1149.55 1741.33L1150.06 1740.89C1150.23 1740.72 1150.48 1740.63 1150.93 1740.63H1171.81C1172.15 1740.63 1172.41 1740.72 1172.66 1740.89L1173.2 1741.33L1175.96 1744.04C1176.39 1744.48 1176.55 1744.92 1176.55 1745.56V1754.05H1146.16Z" fill="#003EB6"/>
<path d="M1434.28 1740.14L1426.63 1732.08C1425.95 1731.35 1425.16 1731 1424.04 1731H1399.17C1398.05 1731 1397.28 1731.35 1396.58 1732.08L1388.96 1740.14C1388.34 1740.78 1388 1741.57 1388 1742.47V1774.46C1388 1775.19 1388.62 1775.8 1389.3 1775.8H1395.11C1395.79 1775.8 1396.41 1775.19 1396.41 1774.46V1761.12H1426.8V1774.46C1426.8 1775.19 1427.42 1775.8 1428.13 1775.8H1433.91C1434.62 1775.8 1435.21 1775.19 1435.21 1774.46V1742.47C1435.21 1741.57 1434.87 1740.78 1434.28 1740.14ZM1396.41 1753.3V1744.81C1396.41 1744.16 1396.58 1743.73 1397 1743.29L1399.8 1740.57L1400.3 1740.14C1400.47 1739.96 1400.73 1739.87 1401.18 1739.87H1422.06C1422.4 1739.87 1422.65 1739.96 1422.91 1740.14L1423.44 1740.57L1426.21 1743.29C1426.63 1743.73 1426.8 1744.16 1426.8 1744.81V1753.3H1396.41Z" fill="#003EB6"/>
<path d="M1254.98 1740.63L1247.16 1732.75C1246.57 1732.11 1245.78 1731.75 1244.91 1731.75H1208.79C1208.11 1731.75 1207.49 1732.37 1207.49 1733.1V1775.22C1207.49 1775.94 1208.11 1776.56 1208.79 1776.56H1214.77C1215.47 1776.56 1216.07 1775.94 1216.07 1775.22V1766.69H1239.54L1244.91 1775.74C1245.27 1776.3 1245.7 1776.56 1246.2 1776.56H1252.72C1253.77 1776.56 1254.27 1775.57 1253.77 1774.69L1247.87 1764.91L1254.98 1757.56C1255.49 1757.03 1255.99 1756.13 1255.99 1755.22V1743.31C1255.99 1742.15 1255.66 1741.33 1254.98 1740.63ZM1216.07 1740.45H1242.14C1242.76 1740.45 1243.18 1740.63 1243.61 1741.07L1246.2 1743.93L1246.65 1744.48C1246.82 1744.74 1246.91 1745.01 1246.91 1745.39V1752.89C1246.91 1753.53 1246.74 1753.97 1246.29 1754.43L1243.52 1757.12C1243.01 1757.64 1242.68 1757.82 1242.22 1757.82H1216.07V1740.45Z" fill="#003EB6"/>
<path d="M1318.38 1748.6C1318.38 1749.76 1318.71 1750.58 1319.42 1751.28L1325.49 1757.38C1326.08 1757.91 1326.87 1758.37 1327.74 1758.37H1353.45C1354.07 1758.37 1354.5 1758.55 1354.95 1758.99L1356.25 1760.62C1356.41 1760.88 1356.5 1761.15 1356.5 1761.5V1763.66C1356.5 1764.27 1356.33 1764.74 1355.88 1765.17L1353.99 1766.98C1353.45 1767.42 1353.11 1767.68 1352.69 1767.68H1321.14C1320.46 1767.68 1319.84 1768.33 1319.84 1769.03V1775.22C1319.84 1775.94 1320.46 1776.56 1321.14 1776.56H1355.12C1356.16 1776.56 1356.84 1776.3 1357.63 1775.48L1364.54 1768.33C1365.08 1767.77 1365.59 1766.87 1365.59 1765.99V1758.55C1365.59 1757.38 1365.25 1756.48 1364.54 1755.86L1359.35 1750.67C1358.76 1750.11 1357.97 1749.68 1357.09 1749.68H1330.51C1329.89 1749.68 1329.47 1749.5 1329.04 1749.03L1327.74 1747.43C1327.57 1747.17 1327.46 1746.9 1327.46 1746.55V1744.66C1327.46 1744.04 1327.66 1743.58 1328.08 1743.14L1329.97 1741.33C1330.51 1740.89 1330.85 1740.63 1331.3 1740.63H1361.95C1362.65 1740.63 1363.24 1739.99 1363.24 1739.29V1733.1C1363.24 1732.37 1362.65 1731.75 1361.95 1731.75H1328.87C1327.83 1731.75 1327.12 1732.02 1326.36 1732.83L1319.42 1739.99C1318.91 1740.54 1318.38 1741.45 1318.38 1742.32V1748.6Z" fill="#003EB6"/>
<path d="M1457.83 1733.1V1765.09C1457.83 1765.99 1458.37 1766.87 1458.88 1767.42L1466.67 1775.48C1467.46 1776.3 1468.13 1776.56 1469.18 1776.56H1501.15C1501.86 1776.56 1502.45 1775.94 1502.45 1775.22V1769.03C1502.45 1768.33 1501.86 1767.68 1501.15 1767.68H1472.06C1471.61 1767.68 1471.27 1767.51 1470.76 1766.98L1467.54 1763.83C1467.12 1763.39 1466.92 1762.93 1466.92 1762.31V1733.1C1466.92 1732.37 1466.33 1731.75 1465.62 1731.75H1459.13C1458.46 1731.75 1457.83 1732.37 1457.83 1733.1Z" fill="#003EB6"/>
<path d="M1534.67 1744.04L1537.44 1741.33C1537.98 1740.8 1538.31 1740.63 1538.74 1740.63H1570.03C1570.71 1740.63 1571.33 1739.99 1571.33 1739.29V1733.1C1571.33 1732.37 1570.71 1731.75 1570.03 1731.75H1535.89C1534.84 1731.75 1534.17 1732.02 1533.38 1732.83L1526.01 1740.45C1525.5 1740.98 1524.97 1741.88 1524.97 1742.79V1765.44C1524.97 1766.6 1525.31 1767.42 1526.01 1768.12L1533.38 1775.57C1533.97 1776.21 1534.76 1776.56 1535.63 1776.56H1570.03C1570.71 1776.56 1571.33 1775.94 1571.33 1775.22V1769.2C1571.33 1768.5 1570.71 1767.86 1570.03 1767.86H1538.82C1538.23 1767.86 1537.78 1767.68 1537.36 1767.25L1534.34 1763.83C1534.17 1763.57 1534.05 1763.31 1534.05 1762.93V1758.29H1565.77C1566.48 1758.29 1567.07 1757.64 1567.07 1756.94V1750.76C1567.07 1750.03 1566.48 1749.41 1565.77 1749.41H1534.05V1745.56C1534.05 1744.92 1534.25 1744.48 1534.67 1744.04Z" fill="#003EB6"/>
</svg>
